<?xml version="1.0" encoding="utf-8"?>
<!-- Generator: Adobe Illustrator 27.5.0, SVG Export Plug-In . SVG Version: 6.00 Build 0)  -->
<svg version="1.1" xmlns="http://www.w3.org/2000/svg" xmlns:xlink="http://www.w3.org/1999/xlink" x="0px" y="0px"
	 viewBox="0 0 3710 3710" style="enable-background:new 0 0 3710 3710;" xml:space="preserve">
<g id="Background">
	<g>
		<g>
			<rect style="fill:#FFFFFF;" width="3710" height="3710"/>
		</g>
	</g>
</g>
<g id="Illustration">
	<g>
		<linearGradient id="SVGID_1_" gradientUnits="userSpaceOnUse" x1="3422.1462" y1="3628.3396" x2="1353.8553" y2="1395.8984">
			<stop  offset="0" style="stop-color:#DAE3FE"/>
			<stop  offset="1" style="stop-color:#E9EFFD"/>
		</linearGradient>
		<path style="fill:url(#SVGID_1_);" d="M3141.385,2353.436c-285.891,660.843-1040.55,944.69-1631.838,896.294
			c-161.446-13.214-486.277-39.802-739.909-276.999c-487.082-455.522-412.067-1407.69,54.21-1968.273
			c60.047-72.191,475.682-555.867,1123.372-549.393c474.203,4.74,807.042,269.648,847.514,302.65
			c51.127,41.691,163.892,140.762,265.521,297.931C3299.047,1424.939,3320.038,1940.475,3141.385,2353.436z"/>
		<g>
			
				<linearGradient id="SVGID_00000139268270143306216270000011186713076653892027_" gradientUnits="userSpaceOnUse" x1="-954.9531" y1="2779.6284" x2="-392.7417" y2="1092.9896" gradientTransform="matrix(-1 0 0 1 1155.7772 0)">
				<stop  offset="0" style="stop-color:#09005D"/>
				<stop  offset="1" style="stop-color:#1A0F91"/>
			</linearGradient>
			<path style="fill:url(#SVGID_00000139268270143306216270000011186713076653892027_);" d="M659.055,2840.814
				c0,24.188,19.809,43.978,44.021,43.978h2380.453c24.211,0,44.021-19.79,44.021-43.978l19.808-1367.981
				c0-24.188-28.498-71.409-80.724-67.861l-2326.441-60.196c-30.378-0.786-59.75,10.906-81.262,32.348
				c-21.512,21.442-33.283,50.759-32.565,81.109L659.055,2840.814z"/>
			
				<linearGradient id="SVGID_00000062162227960000117300000016638655742130639516_" gradientUnits="userSpaceOnUse" x1="2831.9617" y1="1282.6378" x2="781.4335" y2="3082.9551">
				<stop  offset="0" style="stop-color:#FE7062"/>
				<stop  offset="1" style="stop-color:#FF928E"/>
			</linearGradient>
			<path style="fill:url(#SVGID_00000062162227960000117300000016638655742130639516_);" d="M702.514,2798.623
				c0,22.905,18.741,41.646,41.646,41.646h2281.962c22.906,0,41.646-18.741,41.646-41.646l18.692-1241.865
				c-2.201-74.733-67.721-101.592-107.438-100.006L749.34,1396.933c-21.342-0.572-41.977,7.65-57.092,22.727
				c-15.116,15.077-23.429,35.711-22.894,57.054L702.514,2798.623z"/>
			<g>
				<path style="fill:#FFFFFF;" d="M3043.11,2208.65c-0.031,0-0.061,0-0.091,0c-3.372-0.049-6.065-2.821-6.013-6.196l1.477-100.713
					c0.049-3.338,2.772-6.013,6.098-6.013c0.031,0,0.061,0,0.091,0c3.372,0.049,6.065,2.821,6.013,6.196l-1.477,100.713
					C3049.16,2205.976,3046.437,2208.65,3043.11,2208.65z"/>
				<path style="opacity:0.62;fill:#FFFFFF;" d="M3046.735,1961.85c-0.031,0-0.061,0-0.091,0c-3.372-0.049-6.065-2.827-6.013-6.196
					l5.663-385.734c-0.107-22.912-7.061-41.206-20.673-54.249c-25.41-24.344-65.751-23.101-67.451-23.022l-712.656-19.111
					c-3.369-0.085-6.028-2.894-5.937-6.263c0.088-3.369,2.677-6.238,6.266-5.934l712.232,19.111
					c4.432-0.262,47.384-1.005,75.989,26.403c16.092,15.419,24.313,36.662,24.435,63.125l-5.666,385.856
					C3052.784,1959.176,3050.061,1961.85,3046.735,1961.85z"/>
			</g>
			
				<linearGradient id="SVGID_00000036974160034300743200000012947046959237624979_" gradientUnits="userSpaceOnUse" x1="1878.9215" y1="1529.3793" x2="1868.6534" y2="3013.1399">
				<stop  offset="0" style="stop-color:#09005D"/>
				<stop  offset="1" style="stop-color:#1A0F91"/>
			</linearGradient>
			<path style="fill:url(#SVGID_00000036974160034300743200000012947046959237624979_);" d="M471.595,2998.352h2795.152
				c3.11,0,5.654-2.544,5.654-5.654V2883.81c0-3.11-2.544-5.654-5.654-5.654H471.595c-3.11,0-5.654,2.544-5.654,5.654v108.888
				C465.942,2995.808,468.486,2998.352,471.595,2998.352z"/>
		</g>
		<g>
			<path style="fill:#91B3FA;" d="M2514.342,469.241L874.921,459.204c-53.879-0.33-96.97,44.674-94.302,98.487l112.788,2329.227
				h1824.37L2819.073,805.88L2514.342,469.241z"/>
			<path style="fill:#7D97F4;" d="M2582.513,795.901c-53.404-1.879-94.46-47.907-90.251-101.177l17.575-222.415l309.56,332.204
				L2582.513,795.901z"/>
			<g>
				
					<linearGradient id="SVGID_00000051359431943491969480000001659057204613402497_" gradientUnits="userSpaceOnUse" x1="1086.3873" y1="1612.0625" x2="1893.2201" y2="1612.0625">
					<stop  offset="0" style="stop-color:#DAE3FE"/>
					<stop  offset="1" style="stop-color:#E9EFFD"/>
				</linearGradient>
				<path style="fill:url(#SVGID_00000051359431943491969480000001659057204613402497_);" d="M1883.703,1673.726h-787.798
					c-5.256,0-9.517-4.261-9.517-9.517v-104.292c0-5.256,4.261-9.517,9.517-9.517h787.798c5.256,0,9.517,4.261,9.517,9.517v104.292
					C1893.22,1669.465,1888.959,1673.726,1883.703,1673.726z"/>
				<path style="fill:#BDD0FB;" d="M2456.674,1677.903h-227.329c-17.967,0-32.533-14.566-32.533-32.533v-58.261
					c0-17.967,14.566-32.533,32.533-32.533h227.329c17.968,0,32.533,14.565,32.533,32.533v58.261
					C2489.207,1663.338,2474.641,1677.903,2456.674,1677.903z"/>
				<path style="fill:#BDD0FB;" d="M2452.378,1925.957h-227.329c-17.968,0-32.533-14.566-32.533-32.533v-58.261
					c0-17.968,14.565-32.533,32.533-32.533h227.329c17.967,0,32.533,14.566,32.533,32.533v58.261
					C2484.911,1911.392,2470.346,1925.957,2452.378,1925.957z"/>
				<path style="fill:#BDD0FB;" d="M2451.393,2161.026h-227.329c-17.967,0-32.533-14.565-32.533-32.533v-58.261
					c0-17.968,14.566-32.533,32.533-32.533h227.329c17.968,0,32.533,14.566,32.533,32.533v58.261
					C2483.926,2146.461,2469.361,2161.026,2451.393,2161.026z"/>
				<path style="fill:#BDD0FB;" d="M2447.097,2409.08h-227.329c-17.967,0-32.533-14.566-32.533-32.533v-58.261
					c0-17.968,14.565-32.533,32.533-32.533h227.329c17.968,0,32.533,14.565,32.533,32.533v58.261
					C2479.63,2394.514,2465.065,2409.08,2447.097,2409.08z"/>
				
					<linearGradient id="SVGID_00000091015539619891787150000004312497621358534558_" gradientUnits="userSpaceOnUse" x1="1096.6437" y1="1868.3595" x2="1794.9174" y2="1868.3595">
					<stop  offset="0" style="stop-color:#DAE3FE"/>
					<stop  offset="1" style="stop-color:#E9EFFD"/>
				</linearGradient>
				<path style="fill:url(#SVGID_00000091015539619891787150000004312497621358534558_);" d="M1786.128,1930.023h-680.695
					c-4.854,0-8.79-3.935-8.79-8.789v-105.748c0-4.854,3.935-8.79,8.79-8.79h680.695c4.854,0,8.789,3.935,8.789,8.79v105.748
					C1794.917,1926.088,1790.982,1930.023,1786.128,1930.023z"/>
				
					<linearGradient id="SVGID_00000181072480103748904320000013005586214586592176_" gradientUnits="userSpaceOnUse" x1="1103.4813" y1="2106.0657" x2="1934.2455" y2="2106.0657">
					<stop  offset="0" style="stop-color:#DAE3FE"/>
					<stop  offset="1" style="stop-color:#E9EFFD"/>
				</linearGradient>
				<path style="fill:url(#SVGID_00000181072480103748904320000013005586214586592176_);" d="M1926.484,2167.729h-815.24
					c-4.287,0-7.762-3.475-7.762-7.762v-107.803c0-4.287,3.475-7.762,7.762-7.762h815.24c4.287,0,7.762,3.475,7.762,7.762v107.803
					C1934.245,2164.254,1930.77,2167.729,1926.484,2167.729z"/>
				
					<linearGradient id="SVGID_00000013874057978341771670000013914039095772313507_" gradientUnits="userSpaceOnUse" x1="1123.994" y1="2343.5151" x2="2033.3903" y2="2343.5151">
					<stop  offset="0" style="stop-color:#DAE3FE"/>
					<stop  offset="1" style="stop-color:#E9EFFD"/>
				</linearGradient>
				<path style="fill:url(#SVGID_00000013874057978341771670000013914039095772313507_);" d="M2026.618,2405.178h-895.852
					c-3.74,0-6.772-3.032-6.772-6.772v-109.783c0-3.74,3.032-6.772,6.772-6.772h895.852c3.74,0,6.772,3.032,6.772,6.772v109.783
					C2033.39,2402.146,2030.358,2405.178,2026.618,2405.178z"/>
				
					<linearGradient id="SVGID_00000075844976317024473100000008546913337166005138_" gradientUnits="userSpaceOnUse" x1="1129.3575" y1="1130.922" x2="2462.3579" y2="1130.922">
					<stop  offset="0" style="stop-color:#DAE3FE"/>
					<stop  offset="1" style="stop-color:#E9EFFD"/>
				</linearGradient>
				<path style="fill:url(#SVGID_00000075844976317024473100000008546913337166005138_);" d="M2447.792,1208.036h-1303.87
					c-8.044,0-14.565-6.521-14.565-14.565v-125.097c0-8.044,6.521-14.565,14.565-14.565h1303.87c8.044,0,14.565,6.521,14.565,14.565
					v125.097C2462.358,1201.515,2455.837,1208.036,2447.792,1208.036z"/>
				<path style="fill:#BDD0FB;" d="M1019.253,1501.87h1551.316l3.096-82.75c1.525-41.267-32.824-74.492-75.732-74.492H1090.435
					c-43.408,0-77.945,33.997-75.675,75.716L1019.253,1501.87z"/>
				<g>
					<path style="fill:#BDD0FB;" d="M2458.334,2570.887H1148.777c-44.862,0-81.849-33.908-84.206-77.196l-58.345-1072.07
						c-1.198-21.987,6.613-43.038,21.989-59.273c15.94-16.829,38.616-26.48,62.221-26.48h1407.497c23.324,0,45.82,9.46,61.72,25.956
						c15.346,15.923,23.357,36.672,22.553,58.425l-39.601,1072.07C2540.978,2536.375,2503.961,2570.887,2458.334,2570.887z
						 M1090.435,1352.96c-18.931,0-37.087,7.705-49.809,21.141c-12.118,12.794-18.273,29.341-17.335,46.593l58.345,1072.07
						c1.866,34.223,31.356,61.032,67.141,61.032h1309.558c36.39,0,65.906-27.28,67.191-62.107l39.601-1072.07
						c0.627-17.07-5.685-33.384-17.779-45.934c-12.695-13.171-30.708-20.725-49.415-20.725H1090.435z"/>
				</g>
			</g>
			<path style="fill:#BDD0FB;" d="M1575.379,898.661h-527.015c-23.597,0-42.726-19.129-42.726-42.726V695.786
				c0-23.597,19.129-42.726,42.726-42.726h527.015c23.597,0,42.726,19.129,42.726,42.726v160.149
				C1618.104,879.532,1598.975,898.661,1575.379,898.661z"/>
		</g>
		<g>
			<g>
				
					<linearGradient id="SVGID_00000054246811894153880810000015639370539986937490_" gradientUnits="userSpaceOnUse" x1="822.9758" y1="1295.0598" x2="1165.41" y2="897.5921">
					<stop  offset="0" style="stop-color:#E1473D"/>
					<stop  offset="1" style="stop-color:#E9605A"/>
				</linearGradient>
				
					<circle style="fill:url(#SVGID_00000054246811894153880810000015639370539986937490_);" cx="1172.327" cy="889.563" r="255.298"/>
				
					<linearGradient id="SVGID_00000091697153752247084710000013218046905934133648_" gradientUnits="userSpaceOnUse" x1="1358.9077" y1="607.6932" x2="346.3206" y2="2137.4236">
					<stop  offset="0" style="stop-color:#FE7062"/>
					<stop  offset="1" style="stop-color:#FF928E"/>
				</linearGradient>
				
					<circle style="fill:url(#SVGID_00000091697153752247084710000013218046905934133648_);" cx="1172.327" cy="889.563" r="246.808"/>
				<path style="opacity:0.62;fill:#FFFFFF;" d="M968.808,790.457c-0.517,0-1.042-0.117-1.536-0.367
					c-1.686-0.85-2.363-2.906-1.512-4.592c39.601-78.449,118.753-127.184,206.568-127.184c14.02,0,28.054,1.262,41.714,3.752
					c1.856,0.339,3.088,2.12,2.747,3.976c-0.337,1.859-2.126,3.088-3.976,2.751c-13.253-2.417-26.876-3.642-40.486-3.642
					c-85.221,0-162.033,47.296-200.465,123.428C971.261,789.771,970.056,790.457,968.808,790.457z"/>
				
					<ellipse transform="matrix(0.7071 -0.7071 0.7071 0.7071 -287.8774 1094.8851)" style="opacity:0.78;fill:#FFFFFF;" cx="1177.704" cy="894.941" rx="208.893" ry="208.893"/>
				<g>
					
						<linearGradient id="SVGID_00000080200375192704680980000001405795304746128315_" gradientUnits="userSpaceOnUse" x1="1328.7013" y1="651.5247" x2="789.5192" y2="1556.722">
						<stop  offset="0" style="stop-color:#FE7062"/>
						<stop  offset="1" style="stop-color:#FF928E"/>
					</linearGradient>
					<path style="fill:url(#SVGID_00000080200375192704680980000001405795304746128315_);" d="M1157.205,1050.235v-22.727
						c-23.692-0.949-47.125-6.54-63.769-13.826c-5.943-2.602-8.973-9.272-7.266-15.531l5.774-21.169
						c2.118-7.766,10.564-11.783,17.987-8.671c16.51,6.921,36.896,12.397,58.878,12.397c22.819,0,39.836-7.737,39.836-23.595
						c0-14.309-13.149-22.817-44.865-31.325c-45.251-12.377-77.741-32.103-77.741-71.94c0-35.971,26.302-63.431,71.94-70.778
						v-22.729c0-7.313,5.929-13.242,13.242-13.242h13.353c7.314,0,13.242,5.929,13.242,13.242v20.407
						c21.923,0.877,37.881,4.627,50.545,9.076c6.488,2.28,10.034,9.269,8.234,15.907l-5.309,19.578
						c-2.047,7.55-10.116,11.685-17.432,8.919c-11.66-4.409-28.145-9.001-49.573-9.001c-27.074,0-34.808,11.216-34.808,21.272
						c0,12.377,16.244,20.885,51.439,31.715c50.28,15.084,71.165,35.969,71.165,73.485c0,34.422-25.526,65.364-75.032,73.101v25.434
						c0,7.313-5.929,13.242-13.242,13.242h-13.355C1163.134,1063.477,1157.205,1057.548,1157.205,1050.235z"/>
				</g>
			</g>
			<g>
				
					<linearGradient id="SVGID_00000155107824576653768980000009188245607384640931_" gradientUnits="userSpaceOnUse" x1="1108.4661" y1="2122.7817" x2="1334.6029" y2="1860.3018">
					<stop  offset="0" style="stop-color:#E1473D"/>
					<stop  offset="1" style="stop-color:#E9605A"/>
				</linearGradient>
				<circle style="fill:url(#SVGID_00000155107824576653768980000009188245607384640931_);" cx="1339.17" cy="1855" r="168.593"/>
				
					<linearGradient id="SVGID_00000069383543572109613970000009101632497273590177_" gradientUnits="userSpaceOnUse" x1="1462.3846" y1="1668.8583" x2="793.692" y2="2679.0623">
					<stop  offset="0" style="stop-color:#FE7062"/>
					<stop  offset="1" style="stop-color:#FF928E"/>
				</linearGradient>
				<circle style="fill:url(#SVGID_00000069383543572109613970000009101632497273590177_);" cx="1339.17" cy="1855" r="162.987"/>
				<path style="opacity:0.62;fill:#FFFFFF;" d="M1204.768,1790.714c-0.517,0-1.042-0.117-1.536-0.367
					c-1.686-0.85-2.363-2.906-1.512-4.592c26.352-52.201,79.019-84.63,137.45-84.63c9.324,0,18.661,0.841,27.757,2.499
					c1.856,0.339,3.088,2.12,2.747,3.976c-0.337,1.859-2.116,3.088-3.976,2.751c-8.689-1.586-17.616-2.388-26.529-2.388
					c-55.838,0-106.165,30.988-131.348,80.874C1207.222,1790.028,1206.017,1790.714,1204.768,1790.714z"/>
				
					<ellipse transform="matrix(0.1387 -0.9903 0.9903 0.1387 -684.1021 2930.5112)" style="opacity:0.78;fill:#FFFFFF;" cx="1342.721" cy="1858.551" rx="137.949" ry="137.948"/>
				<g>
					
						<linearGradient id="SVGID_00000151525861117384782640000006487281252168413111_" gradientUnits="userSpaceOnUse" x1="1442.4371" y1="1697.8036" x2="1086.3718" y2="2295.5784">
						<stop  offset="0" style="stop-color:#FE7062"/>
						<stop  offset="1" style="stop-color:#FF928E"/>
					</linearGradient>
					<path style="fill:url(#SVGID_00000151525861117384782640000006487281252168413111_);" d="M1329.184,1961.104v-15.007
						c-15.645-0.627-31.12-4.319-42.111-9.13c-3.924-1.718-5.925-6.123-4.798-10.256l3.812-13.98
						c1.399-5.129,6.976-7.781,11.879-5.726c10.903,4.571,24.366,8.187,38.882,8.187c15.069,0,26.307-5.109,26.307-15.581
						c0-9.45-8.684-15.069-29.628-20.687c-29.883-8.174-51.338-21.2-51.338-47.508c0-23.754,17.369-41.889,47.507-46.741v-15.01
						c0-4.829,3.915-8.745,8.745-8.745h8.818c4.83,0,8.745,3.915,8.745,8.745v13.477c14.477,0.579,25.015,3.055,33.378,5.993
						c4.285,1.506,6.626,6.122,5.438,10.505l-3.506,12.928c-1.352,4.986-6.681,7.717-11.513,5.89
						c-7.7-2.912-18.586-5.944-32.737-5.944c-17.88,0-22.986,7.407-22.986,14.047c0,8.173,10.727,13.792,33.969,20.944
						c33.204,9.961,46.996,23.753,46.996,48.528c0,22.732-16.856,43.165-49.55,48.274v16.795c0,4.83-3.915,8.745-8.744,8.745h-8.819
						C1333.099,1969.849,1329.184,1965.933,1329.184,1961.104z"/>
				</g>
			</g>
			<g>
				
					<linearGradient id="SVGID_00000118383903287171397500000010942010771214665907_" gradientUnits="userSpaceOnUse" x1="1436.7407" y1="2326.1621" x2="1584.7201" y2="2154.4006">
					<stop  offset="0" style="stop-color:#E1473D"/>
					<stop  offset="1" style="stop-color:#E9605A"/>
				</linearGradient>
				
					<circle style="fill:url(#SVGID_00000118383903287171397500000010942010771214665907_);" cx="1587.709" cy="2150.931" r="110.324"/>
				
					<linearGradient id="SVGID_00000129919528358094680100000013974081569590954418_" gradientUnits="userSpaceOnUse" x1="1668.3378" y1="2029.1239" x2="1230.7589" y2="2690.1809">
					<stop  offset="0" style="stop-color:#FE7062"/>
					<stop  offset="1" style="stop-color:#FF928E"/>
				</linearGradient>
				
					<circle style="fill:url(#SVGID_00000129919528358094680100000013974081569590954418_);" cx="1587.709" cy="2150.931" r="106.655"/>
				<path style="opacity:0.62;fill:#FFFFFF;" d="M1499.758,2110.044c-0.517,0-1.042-0.117-1.536-0.367
					c-1.686-0.85-2.363-2.906-1.512-4.592c17.442-34.559,52.313-56.028,90.999-56.028c6.169,0,12.351,0.556,18.377,1.654
					c1.856,0.339,3.088,2.118,2.747,3.976c-0.337,1.858-2.09,3.083-3.976,2.751c-5.622-1.025-11.39-1.544-17.148-1.544
					c-36.093,0-68.623,20.029-84.897,52.273C1502.212,2109.358,1501.006,2110.044,1499.758,2110.044z"/>
				
					<ellipse transform="matrix(0.1602 -0.9871 0.9871 0.1602 -790.113 3377.8435)" style="opacity:0.78;fill:#FFFFFF;" cx="1590.033" cy="2153.255" rx="90.271" ry="90.271"/>
				<g>
					
						<linearGradient id="SVGID_00000121246512826416410010000016163466415624925327_" gradientUnits="userSpaceOnUse" x1="1655.2847" y1="2048.0652" x2="1422.2826" y2="2439.2371">
						<stop  offset="0" style="stop-color:#FE7062"/>
						<stop  offset="1" style="stop-color:#FF928E"/>
					</linearGradient>
					<path style="fill:url(#SVGID_00000121246512826416410010000016163466415624925327_);" d="M1581.174,2220.363v-9.82
						c-10.238-0.41-20.365-2.827-27.557-5.975c-2.568-1.125-3.877-4.007-3.14-6.711l2.495-9.148
						c0.916-3.356,4.565-5.092,7.773-3.747c7.135,2.991,15.944,5.357,25.444,5.357c9.861,0,17.215-3.343,17.215-10.196
						c0-6.184-5.682-9.861-19.388-13.537c-19.555-5.349-33.594-13.873-33.594-31.088c0-15.544,11.366-27.411,31.088-30.586v-9.822
						c0-3.16,2.562-5.722,5.723-5.722h5.77c3.161,0,5.723,2.562,5.723,5.722v8.819c9.473,0.379,16.369,1.999,21.842,3.922
						c2.804,0.985,4.336,4.006,3.558,6.874l-2.294,8.46c-0.885,3.263-4.372,5.05-7.533,3.854c-5.039-1.906-12.163-3.89-21.423-3.89
						c-11.7,0-15.042,4.847-15.042,9.192c0,5.348,7.019,9.025,22.229,13.705c21.728,6.519,30.753,15.544,30.753,31.756
						c0,14.875-11.03,28.246-32.424,31.59v10.99c0,3.161-2.562,5.723-5.722,5.723h-5.771
						C1583.736,2226.086,1581.174,2223.524,1581.174,2220.363z"/>
				</g>
			</g>
			<g>
				
					<linearGradient id="SVGID_00000061469937974470252380000008946128372691108521_" gradientUnits="userSpaceOnUse" x1="879.1168" y1="1747.6154" x2="1149.7662" y2="1433.4691">
					<stop  offset="0" style="stop-color:#E1473D"/>
					<stop  offset="1" style="stop-color:#E9605A"/>
				</linearGradient>
				
					<circle style="fill:url(#SVGID_00000061469937974470252380000008946128372691108521_);" cx="1155.233" cy="1427.124" r="201.779"/>
				
					<linearGradient id="SVGID_00000003808366309991009150000002087540146273467785_" gradientUnits="userSpaceOnUse" x1="1302.7008" y1="1204.3419" x2="502.383" y2="2413.394">
					<stop  offset="0" style="stop-color:#FE7062"/>
					<stop  offset="1" style="stop-color:#FF928E"/>
				</linearGradient>
				
					<circle style="fill:url(#SVGID_00000003808366309991009150000002087540146273467785_);" cx="1155.233" cy="1427.124" r="195.07"/>
				<path style="opacity:0.62;fill:#FFFFFF;" d="M994.378,1349.51c-0.517,0-1.042-0.117-1.536-0.367
					c-1.686-0.85-2.363-2.906-1.512-4.592c31.419-62.247,94.224-100.917,163.902-100.917c11.113,0,22.249,1.002,33.098,2.978
					c1.859,0.339,3.091,2.118,2.751,3.976c-0.337,1.859-2.113,3.078-3.972,2.751c-10.449-1.903-21.171-2.867-31.876-2.867
					c-67.084,0-127.549,37.229-157.8,97.162C996.832,1348.824,995.627,1349.51,994.378,1349.51z"/>
				<circle style="opacity:0.78;fill:#FFFFFF;" cx="1159.483" cy="1431.374" r="165.102"/>
				<g>
					
						<linearGradient id="SVGID_00000127734567314762337670000013224047978352166586_" gradientUnits="userSpaceOnUse" x1="1278.8264" y1="1238.9852" x2="852.6737" y2="1954.425">
						<stop  offset="0" style="stop-color:#FE7062"/>
						<stop  offset="1" style="stop-color:#FF928E"/>
					</linearGradient>
					<path style="fill:url(#SVGID_00000127734567314762337670000013224047978352166586_);" d="M1143.282,1554.114v-17.962
						c-18.726-0.75-37.247-5.169-50.401-10.927c-4.697-2.056-7.092-7.328-5.743-12.275l4.563-16.732
						c1.674-6.137,8.349-9.312,14.217-6.853c13.049,5.47,29.161,9.798,46.535,9.798c18.036,0,31.486-6.115,31.486-18.648
						c0-11.31-10.393-18.034-35.46-24.759c-35.765-9.782-61.444-25.373-61.444-56.859c0-28.431,20.788-50.134,56.859-55.941v-17.964
						c0-5.781,4.686-10.466,10.466-10.466h10.553c5.78,0,10.466,4.686,10.466,10.466v16.129c17.327,0.693,29.94,3.657,39.949,7.173
						c5.128,1.802,7.93,7.327,6.508,12.573l-4.196,15.474c-1.618,5.967-7.995,9.235-13.778,7.049
						c-9.216-3.485-22.245-7.113-39.181-7.113c-21.398,0-27.511,8.864-27.511,16.813c0,9.782,12.838,16.506,40.656,25.067
						c39.74,11.921,56.247,28.428,56.247,58.08c0,27.207-20.175,51.662-59.303,57.776v20.102c0,5.78-4.686,10.466-10.466,10.466
						h-10.555C1147.967,1564.58,1143.282,1559.894,1143.282,1554.114z"/>
				</g>
			</g>
		</g>
		<g>
			
				<linearGradient id="SVGID_00000070804694739579748080000005754823137169882299_" gradientUnits="userSpaceOnUse" x1="1816.0841" y1="2804.7813" x2="1746.4337" y2="2910.7449" gradientTransform="matrix(0.9983 -0.0579 0.0579 0.9983 -43.8676 40.427)">
				<stop  offset="0" style="stop-color:#FDF53F"/>
				<stop  offset="0.6645" style="stop-color:#E57A58"/>
				<stop  offset="1" style="stop-color:#D93C65"/>
			</linearGradient>
			<path style="fill:url(#SVGID_00000070804694739579748080000005754823137169882299_);" d="M1849.681,2788.164
				c15.361,2.139,104.891,48.613,101.474-10.263c-0.322-5.546-3.818-65.766-3.818-65.766S1845.267,2787.549,1849.681,2788.164z"/>
			
				<linearGradient id="SVGID_00000033371385214626085220000011314572086253563580_" gradientUnits="userSpaceOnUse" x1="1418.938" y1="3107.3938" x2="1337.2709" y2="3210.0747" gradientTransform="matrix(0.9983 -0.0579 0.0579 0.9983 -43.8676 40.427)">
				<stop  offset="0" style="stop-color:#09005D"/>
				<stop  offset="1" style="stop-color:#1A0F91"/>
			</linearGradient>
			<path style="fill:url(#SVGID_00000033371385214626085220000011314572086253563580_);" d="M1562.407,3088.367
				c0,0-21.077-15.522-47.674-11.537c-18.451,4.347-39.363,22.103-52.75,35.154c-2.335,2.275-2.964,5.719-1.582,8.626
				c1.382,2.907,4.485,4.665,7.777,4.406c34.916-2.754,103.187-8.8,102.887-13.954
				C1570.663,3104.139,1562.407,3088.367,1562.407,3088.367z"/>
			
				<linearGradient id="SVGID_00000031184385951123836020000017268328323041524365_" gradientUnits="userSpaceOnUse" x1="1434.0773" y1="3088.1543" x2="1386.6499" y2="3147.7852" gradientTransform="matrix(0.9983 -0.0579 0.0579 0.9983 -43.8676 40.427)">
				<stop  offset="0" style="stop-color:#FF928E"/>
				<stop  offset="1" style="stop-color:#FEB3B1"/>
			</linearGradient>
			<path style="fill:url(#SVGID_00000031184385951123836020000017268328323041524365_);" d="M1574.553,3058.148l-14.286,31.239
				c0,0-36.078,5.076-35.717-9.256c0.36-14.332,8.274-32.083,8.274-32.083L1574.553,3058.148z"/>
			
				<linearGradient id="SVGID_00000170993174048669583510000008915625621271388595_" gradientUnits="userSpaceOnUse" x1="1841.6721" y1="2802.8542" x2="2067.2803" y2="2317.4558">
				<stop  offset="0" style="stop-color:#4042E2"/>
				<stop  offset="1" style="stop-color:#4F52FF"/>
			</linearGradient>
			<path style="fill:url(#SVGID_00000170993174048669583510000008915625621271388595_);" d="M1985.465,3055.001
				c-33.106-135.792-33.911-219.695-33.911-219.695s-311.665-166.742-337.638-121.11c-25.973,45.632-90.294,350.485-90.294,350.485
				l55.366,11.693c0,0,96.004-147.183,98.518-268.227c31.927,86.323,69.116,294.877,275.855,288.921
				c10.264-0.296,19.842-5.214,26.071-13.378C1985.663,3075.53,1987.897,3064.978,1985.465,3055.001z"/>
			
				<linearGradient id="SVGID_00000179621622137970497900000006610665978452333729_" gradientUnits="userSpaceOnUse" x1="1205.056" y1="3079.6768" x2="1234.8606" y2="3184.2415" gradientTransform="matrix(0.9983 -0.0579 0.0579 0.9983 -43.8676 40.427)">
				<stop  offset="0" style="stop-color:#FF928E"/>
				<stop  offset="1" style="stop-color:#FEB3B1"/>
			</linearGradient>
			<polygon style="fill:url(#SVGID_00000179621622137970497900000006610665978452333729_);" points="1383.008,3086.558 
				1351.557,3119.987 1323.891,3095.356 1356.048,3053.539 			"/>
			
				<linearGradient id="SVGID_00000057129650307933937410000001498408276572361639_" gradientUnits="userSpaceOnUse" x1="2035.7899" y1="2342.8708" x2="2083.6462" y2="2660.7739">
				<stop  offset="0" style="stop-color:#FF928E"/>
				<stop  offset="1" style="stop-color:#FEB3B1"/>
			</linearGradient>
			<path style="fill:url(#SVGID_00000057129650307933937410000001498408276572361639_);" d="M2075.671,2360.461l33.732,100.79
				c1.546,4.618,0.268,9.79-3.229,12.77c-12.791,10.901-46.589,33.064-95.692,16.282c-5.616-1.919-9.703-7.362-10.552-13.774
				l-11.766-88.827L2075.671,2360.461z"/>
			<g>
				
					<linearGradient id="SVGID_00000149369776501027976600000000802272397416436667_" gradientUnits="userSpaceOnUse" x1="4386.2207" y1="-1592.1744" x2="4307.604" y2="-1255.4889" gradientTransform="matrix(-0.9997 -0.0271 -0.0271 0.9997 5504.0225 -47.9472)">
					<stop  offset="0" style="stop-color:#FF928E"/>
					<stop  offset="1" style="stop-color:#FEB3B1"/>
				</linearGradient>
				<path style="fill:url(#SVGID_00000149369776501027976600000000802272397416436667_);" d="M1908.232,2287.302
					c0,0,11.071,96.57,47.222,127.156c36.151,30.586,108.753,10.263,135.038-61.599l-45.09-125.313L1908.232,2287.302z"/>
				
					<linearGradient id="SVGID_00000001656150084508966180000005477059042140091564_" gradientUnits="userSpaceOnUse" x1="3418.0815" y1="2194.7644" x2="3471.3396" y2="2498.533" gradientTransform="matrix(-0.9997 -0.0271 -0.0271 0.9997 5504.0225 -47.9472)">
					<stop  offset="0" style="stop-color:#09005D"/>
					<stop  offset="1" style="stop-color:#1A0F91"/>
				</linearGradient>
				<path style="fill:url(#SVGID_00000001656150084508966180000005477059042140091564_);" d="M2039.555,2315.022
					c-2.835,0.83-5.729-1.052-6.089-3.984c-1.093-8.917-3.946-26.581-10.363-38.734c0,0,3.869-12.526-32.071,5.58
					c-35.94,18.105-89.905,44.67-120.776,27.142c-30.099-17.089-58.815-99.761,21.487-82.41c3.055,0.66,5.945-1.71,5.8-4.832
					c-0.627-13.476,1.547-44.383,33.15-53.464c29.574-8.499,45.268,5.173,51.666,13.343c1.882,2.403,5.495,2.454,7.417,0.082
					c9.095-11.229,33.611-34.99,68.308-18.563c28.579,13.531,32.594,31.47,31.816,42.559c-0.252,3.593,3.332,6.13,6.643,4.712
					c8.969-3.84,23.275-5.573,36.461,11.899c18.228,24.155-9.293,43.926-17.528,49.081c-1.349,0.845-2.213,2.282-2.266,3.873
					c-0.409,12.293-1.531,67.037-29.233,96.561c-2.398,2.556-8.927,0.509-10.195-2.759l-19.359-49.874
					c-0.899-2.316-3.421-3.56-5.806-2.862L2039.555,2315.022z"/>
				
					<linearGradient id="SVGID_00000127014378806127519880000006280999949188403110_" gradientUnits="userSpaceOnUse" x1="4330.9609" y1="-1605.0654" x2="4252.3447" y2="-1268.3813" gradientTransform="matrix(-0.9997 -0.0271 -0.0271 0.9997 5504.0225 -47.9472)">
					<stop  offset="0" style="stop-color:#FF928E"/>
					<stop  offset="1" style="stop-color:#FEB3B1"/>
				</linearGradient>
				<path style="fill:url(#SVGID_00000127014378806127519880000006280999949188403110_);" d="M2035.901,2322.212
					c0,0,14.035-51.135,32.78-33.9s-6.456,53.363-28.639,59.778L2035.901,2322.212z"/>
			</g>
			
				<linearGradient id="SVGID_00000005235925858007162710000011957935968146555035_" gradientUnits="userSpaceOnUse" x1="1149.7777" y1="3112.9807" x2="1177.5721" y2="3210.4932" gradientTransform="matrix(0.9983 -0.0579 0.0579 0.9983 -43.8676 40.427)">
				<stop  offset="0" style="stop-color:#09005D"/>
				<stop  offset="1" style="stop-color:#1A0F91"/>
			</linearGradient>
			<path style="fill:url(#SVGID_00000005235925858007162710000011957935968146555035_);" d="M1366.894,3103.686
				c-8.132,0.564-43.244-12.49-43.244-12.49l-31.398,10.369c-28.045-2.663-51.369,8.188-66.899,18.742
				c-3.392,2.305-4.837,6.588-3.548,10.482c1.289,3.894,5.003,6.462,9.1,6.293c31.508-1.306,83.23-3.781,109.321-6.867
				C1379.311,3125.591,1385.319,3126.375,1366.894,3103.686z"/>
			
				<linearGradient id="SVGID_00000119099888904211029450000011984248743571868330_" gradientUnits="userSpaceOnUse" x1="-2317.6824" y1="2678.2268" x2="-2120.2876" y2="2678.2268" gradientTransform="matrix(-0.9983 0.0579 0.0579 0.9983 -853.4013 86.815)">
				<stop  offset="0" style="stop-color:#09005D"/>
				<stop  offset="1" style="stop-color:#1A0F91"/>
			</linearGradient>
			<path style="fill:url(#SVGID_00000119099888904211029450000011984248743571868330_);" d="M1622.541,2749.232l-82.285-225.906
				c-3.357-9.216-12.075-15.387-21.883-15.488l-93.448-0.966c-9.499-0.098-15.999,9.553-12.339,18.318l89.814,215.086
				c2.893,6.929,9.533,11.56,17.036,11.88l92.248,4.858L1622.541,2749.232z"/>
			
				<linearGradient id="SVGID_00000158707848398845754910000016431809290445384888_" gradientUnits="userSpaceOnUse" x1="-2293.7271" y1="2764.5" x2="-2451.5537" y2="2807.7561" gradientTransform="matrix(-0.9983 0.0579 0.0579 0.9983 -853.4013 86.815)">
				<stop  offset="0" style="stop-color:#09005D"/>
				<stop  offset="1" style="stop-color:#1A0F91"/>
			</linearGradient>
			<path style="fill:url(#SVGID_00000158707848398845754910000016431809290445384888_);" d="M1611.683,2757.014
				c0.15-0.009,0.299-0.021,0.449-0.038l194.729-21.208c4.814-0.523,8.291-4.85,7.767-9.664c-0.524-4.816-4.874-8.371-9.666-7.767
				l-194.729,21.208c-4.814,0.523-8.291,4.85-7.767,9.664C1602.974,2753.873,1607.052,2757.283,1611.683,2757.014z"/>
			
				<linearGradient id="SVGID_00000109724147662490965570000003133867113638048674_" gradientUnits="userSpaceOnUse" x1="-2634.7859" y1="2203.8979" x2="-2272.7078" y2="1708.5555" gradientTransform="matrix(-0.9678 -0.2519 -0.2519 0.9678 -185.137 -5.4191)">
				<stop  offset="0" style="stop-color:#FF928E"/>
				<stop  offset="1" style="stop-color:#FEB3B1"/>
			</linearGradient>
			<path style="fill:url(#SVGID_00000109724147662490965570000003133867113638048674_);" d="M1900.515,2712.442
				c0,0-35.431,51.55-148.72-5.821c0,0-32.622-26.698-64.32-21.648c-31.698,5.05-52.313,49.769-52.313,49.769l61.455-4.833
				c0,0,91.442,98.694,270.032,88.327C1969.348,2778.21,1926.537,2746.875,1900.515,2712.442z"/>
			
				<linearGradient id="SVGID_00000163792579011188873940000001383218844936063928_" gradientUnits="userSpaceOnUse" x1="1872.3823" y1="2536.8274" x2="2140.0344" y2="3475.8423" gradientTransform="matrix(0.9983 -0.0579 0.0579 0.9983 -43.8676 40.427)">
				<stop  offset="0" style="stop-color:#FE7062"/>
				<stop  offset="1" style="stop-color:#FF928E"/>
			</linearGradient>
			<path style="fill:url(#SVGID_00000163792579011188873940000001383218844936063928_);" d="M2037.656,2453.276
				c-23.02,6.48-47.458,32.634-64.547,54.46c-13.711,17.512-23.2,37.534-28.183,59.21c-11.227,48.838-36.443,144.59-56.219,154.753
				c49.747,62.605,58.733,83.517,58.733,83.517c-4.117,78.388-21.306,95.019-21.306,95.019s94.943,83.894,205.132,102.939
				c94.782-78.645,97.821-288.064,97.821-288.064C2222.483,2467.318,2105.93,2434.057,2037.656,2453.276z"/>
			
				<linearGradient id="SVGID_00000135650727362263159610000015747275671437571255_" gradientUnits="userSpaceOnUse" x1="1944.3894" y1="2712.3667" x2="2053.3005" y2="2712.3667">
				<stop  offset="0" style="stop-color:#E1473D"/>
				<stop  offset="1" style="stop-color:#E9605A"/>
			</linearGradient>
			<path style="fill:url(#SVGID_00000135650727362263159610000015747275671437571255_);" d="M1946.758,2807.874
				c-0.627,0.036-1.266-0.188-1.737-0.677c-0.861-0.888-0.839-2.304,0.049-3.166c0.852-0.83,85.576-83.929,103.786-185.333
				c0.221-1.216,1.388-2.023,2.601-1.808c1.218,0.218,2.026,1.382,1.808,2.601c-18.47,102.849-104.213,186.918-105.078,187.755
				C1947.787,2807.636,1947.278,2807.844,1946.758,2807.874z"/>
			
				<linearGradient id="SVGID_00000152235238916391666970000015148444578190045350_" gradientUnits="userSpaceOnUse" x1="1487.5951" y1="2675.4412" x2="1716.9429" y2="3480.0718" gradientTransform="matrix(0.9983 -0.0579 0.0579 0.9983 -43.8676 40.427)">
				<stop  offset="0" style="stop-color:#4042E2"/>
				<stop  offset="1" style="stop-color:#4F52FF"/>
			</linearGradient>
			<path style="fill:url(#SVGID_00000152235238916391666970000015148444578190045350_);" d="M2131.265,3003.174
				c0,0-36.878,135.11-261.177,73.595c-108.757-29.827-270.238-229.98-270.238-229.98s-30.981,103.165-215.661,249.837
				l-45.018-35.946c0,0,175.42-347.277,277.282-318.209C1718.314,2771.541,2156.781,2915.432,2131.265,3003.174z"/>
			<polygon style="fill:#BDD0FB;" points="1435.25,2522.979 1522.442,2727.823 1602.023,2721.122 1526.838,2524.104 			"/>
		</g>
		<g>
			<g>
				<g>
					
						<linearGradient id="SVGID_00000044138221410953501250000016954029214016299423_" gradientUnits="userSpaceOnUse" x1="3155.5532" y1="2052.3196" x2="1678.662" y2="3880.3584">
						<stop  offset="0" style="stop-color:#09005D"/>
						<stop  offset="1" style="stop-color:#1A0F91"/>
					</linearGradient>
					<path style="fill:url(#SVGID_00000044138221410953501250000016954029214016299423_);" d="M3252.115,1975.724
						c5.5,196.42,23.338,873.947,14.823,1114.041c-0.902,25.436-23.934,45.852-52.663,46.684
						c-142.094,4.116-663.004,14.551-895.423,5.918c-48.41-1.799-86.906-36.514-87.91-79.401
						c-4.831-206.168-15.486-786.04,9.841-1051.679c3.035-31.827,31.251-57.173,67.15-60.353
						c154.747-13.705,677.897-47.207,878.693-35.671C3222.84,1917.344,3251.217,1943.605,3252.115,1975.724z"/>
					
						<linearGradient id="SVGID_00000129205307205731675890000005863038236828596412_" gradientUnits="userSpaceOnUse" x1="3291.8398" y1="1593.8833" x2="2208.3855" y2="2709.0476">
						<stop  offset="0" style="stop-color:#FE7062"/>
						<stop  offset="1" style="stop-color:#FF928E"/>
					</linearGradient>
					<path style="fill:url(#SVGID_00000129205307205731675890000005863038236828596412_);" d="M3211.304,2062.326v166.458
						c0,31.921-25.877,57.798-57.798,57.798h-795.302c-31.921,0-57.798-25.877-57.798-57.798v-166.458
						c0-31.921,25.877-57.798,57.798-57.798h795.302C3185.427,2004.527,3211.304,2030.405,3211.304,2062.326z"/>
					<path style="opacity:0.2;fill:#FFFFFF;" d="M2342.696,2054.149c7.159-7.144,16.866-11.148,26.98-11.128l744.27,1.405
						c19.897,0.037,36.413,15.38,37.916,35.219l12.526,165.347c1.026,13.539-21.412,24.523-49.768,24.364l-731.671-4.141
						c-28.312-0.161-51.52-11.372-51.514-24.885l0.071-159.229C2331.511,2070.988,2335.536,2061.291,2342.696,2054.149z"/>
				</g>
				
					<linearGradient id="SVGID_00000107558646558892526460000012084979236482187149_" gradientUnits="userSpaceOnUse" x1="3766.2869" y1="1226.9216" x2="2361.6982" y2="3808.8848">
					<stop  offset="0" style="stop-color:#4042E2"/>
					<stop  offset="1" style="stop-color:#4F52FF"/>
				</linearGradient>
				<path style="fill:url(#SVGID_00000107558646558892526460000012084979236482187149_);" d="M3012.479,2455.353
					c0,29.368,23.807,53.174,53.174,53.174h64.734c29.368,0,53.174-23.807,53.174-53.174l0,0c0-29.367-23.807-53.174-53.174-53.174
					h-64.734C3036.286,2402.179,3012.479,2425.986,3012.479,2455.353L3012.479,2455.353z"/>
				
					<linearGradient id="SVGID_00000005240223931088287730000000562276467442302085_" gradientUnits="userSpaceOnUse" x1="3580.7551" y1="1125.9869" x2="2176.1667" y2="3707.95">
					<stop  offset="0" style="stop-color:#4042E2"/>
					<stop  offset="1" style="stop-color:#4F52FF"/>
				</linearGradient>
				<path style="fill:url(#SVGID_00000005240223931088287730000000562276467442302085_);" d="M2772.039,2455.353
					c0,29.368,23.807,53.174,53.174,53.174h64.734c29.367,0,53.174-23.807,53.174-53.174l0,0c0-29.367-23.807-53.174-53.174-53.174
					h-64.734C2795.845,2402.179,2772.039,2425.986,2772.039,2455.353L2772.039,2455.353z"/>
				
					<linearGradient id="SVGID_00000058572253560176985700000001726127553831059334_" gradientUnits="userSpaceOnUse" x1="3402.3547" y1="1028.9425" x2="1997.7659" y2="3610.9065">
					<stop  offset="0" style="stop-color:#4042E2"/>
					<stop  offset="1" style="stop-color:#4F52FF"/>
				</linearGradient>
				<path style="fill:url(#SVGID_00000058572253560176985700000001726127553831059334_);" d="M2540.846,2455.353
					c0,29.368,23.807,53.174,53.174,53.174h64.734c29.367,0,53.174-23.807,53.174-53.174l0,0c0-29.367-23.807-53.174-53.174-53.174
					h-64.734C2564.653,2402.179,2540.846,2425.986,2540.846,2455.353L2540.846,2455.353z"/>
				
					<linearGradient id="SVGID_00000145778908362272165380000005872918509662505880_" gradientUnits="userSpaceOnUse" x1="4887.7949" y1="2400.908" x2="4506.7026" y2="2850.2554" gradientTransform="matrix(-1 0 0 1 7226.8052 0)">
					<stop  offset="0" style="stop-color:#FE7062"/>
					<stop  offset="1" style="stop-color:#FF928E"/>
				</linearGradient>
				<path style="fill:url(#SVGID_00000145778908362272165380000005872918509662505880_);" d="M2306.487,2463.159
					c0,29.843,24.193,54.036,54.035,54.036h62.567c29.843,0,54.036-24.192,54.036-54.036l0,0c0-29.843-24.193-54.035-54.036-54.035
					h-62.567C2330.679,2409.124,2306.487,2433.316,2306.487,2463.159L2306.487,2463.159z"/>
				
					<linearGradient id="SVGID_00000151541841179367660930000016659080872543500169_" gradientUnits="userSpaceOnUse" x1="3836.1604" y1="1264.9359" x2="2431.5674" y2="3846.9075">
					<stop  offset="0" style="stop-color:#4042E2"/>
					<stop  offset="1" style="stop-color:#4F52FF"/>
				</linearGradient>
				<path style="fill:url(#SVGID_00000151541841179367660930000016659080872543500169_);" d="M3012.479,2621.812
					c0,29.367,23.807,53.174,53.174,53.174h64.734c29.368,0,53.174-23.807,53.174-53.174l0,0c0-29.368-23.807-53.174-53.174-53.174
					h-64.734C3036.286,2568.637,3012.479,2592.444,3012.479,2621.812L3012.479,2621.812z"/>
				
					<linearGradient id="SVGID_00000042737999612300585860000009846474815787170710_" gradientUnits="userSpaceOnUse" x1="3650.625" y1="1164.0087" x2="2246.032" y2="3745.98">
					<stop  offset="0" style="stop-color:#4042E2"/>
					<stop  offset="1" style="stop-color:#4F52FF"/>
				</linearGradient>
				<path style="fill:url(#SVGID_00000042737999612300585860000009846474815787170710_);" d="M2772.039,2621.812
					c0,29.367,23.807,53.174,53.174,53.174h64.734c29.367,0,53.174-23.807,53.174-53.174l0,0c0-29.368-23.807-53.174-53.174-53.174
					h-64.734C2795.845,2568.637,2772.039,2592.444,2772.039,2621.812L2772.039,2621.812z"/>
				
					<linearGradient id="SVGID_00000062893698985464411750000010858916202014793625_" gradientUnits="userSpaceOnUse" x1="3472.231" y1="1066.9524" x2="2067.6377" y2="3648.9246">
					<stop  offset="0" style="stop-color:#4042E2"/>
					<stop  offset="1" style="stop-color:#4F52FF"/>
				</linearGradient>
				<path style="fill:url(#SVGID_00000062893698985464411750000010858916202014793625_);" d="M2540.846,2621.812
					c0,29.367,23.807,53.174,53.174,53.174h64.734c29.367,0,53.174-23.807,53.174-53.174l0,0c0-29.368-23.807-53.174-53.174-53.174
					h-64.734C2564.653,2568.637,2540.846,2592.444,2540.846,2621.812L2540.846,2621.812z"/>
				
					<linearGradient id="SVGID_00000133523834371776023940000014826893635102119055_" gradientUnits="userSpaceOnUse" x1="3286.6956" y1="966.0249" x2="1882.1021" y2="3547.9971">
					<stop  offset="0" style="stop-color:#4042E2"/>
					<stop  offset="1" style="stop-color:#4F52FF"/>
				</linearGradient>
				<path style="fill:url(#SVGID_00000133523834371776023940000014826893635102119055_);" d="M2300.406,2621.812
					c0,29.367,23.807,53.174,53.174,53.174h64.734c29.367,0,53.174-23.807,53.174-53.174l0,0c0-29.368-23.807-53.174-53.174-53.174
					h-64.734C2324.213,2568.637,2300.406,2592.444,2300.406,2621.812L2300.406,2621.812z"/>
				<g>
					
						<linearGradient id="SVGID_00000129924048298665642850000002544331132418942867_" gradientUnits="userSpaceOnUse" x1="1053.4684" y1="8422.3867" x2="-351.1211" y2="11004.3516" gradientTransform="matrix(-1 0 0 1 7226.8052 0)">
						<stop  offset="0" style="stop-color:#4042E2"/>
						<stop  offset="1" style="stop-color:#4F52FF"/>
					</linearGradient>
					<path style="opacity:0.63;fill:url(#SVGID_00000129924048298665642850000002544331132418942867_);" d="M3012.479,2769.233
						c0,29.368,23.807,53.174,53.174,53.174h64.734c29.368,0,53.174-23.807,53.174-53.174l0,0c0-29.367-23.807-53.174-53.174-53.174
						h-64.734C3036.286,2716.059,3012.479,2739.866,3012.479,2769.233L3012.479,2769.233z"/>
					
						<linearGradient id="SVGID_00000021801528747033491380000000632047894000536192_" gradientUnits="userSpaceOnUse" x1="3712.5125" y1="1197.6664" x2="2307.9231" y2="3779.6311">
						<stop  offset="0" style="stop-color:#4042E2"/>
						<stop  offset="1" style="stop-color:#4F52FF"/>
					</linearGradient>
					<path style="opacity:0.63;fill:url(#SVGID_00000021801528747033491380000000632047894000536192_);" d="M2772.039,2769.233
						c0,29.368,23.807,53.174,53.174,53.174h64.734c29.367,0,53.174-23.807,53.174-53.174l0,0c0-29.367-23.807-53.174-53.174-53.174
						h-64.734C2795.845,2716.059,2772.039,2739.866,2772.039,2769.233L2772.039,2769.233z"/>
					
						<linearGradient id="SVGID_00000068655657596830751510000001244806322903264656_" gradientUnits="userSpaceOnUse" x1="3534.1121" y1="1100.6218" x2="2129.5222" y2="3682.5874">
						<stop  offset="0" style="stop-color:#4042E2"/>
						<stop  offset="1" style="stop-color:#4F52FF"/>
					</linearGradient>
					<path style="fill:url(#SVGID_00000068655657596830751510000001244806322903264656_);" d="M2540.846,2769.233
						c0,29.368,23.807,53.174,53.174,53.174h64.734c29.367,0,53.174-23.807,53.174-53.174l0,0c0-29.367-23.807-53.174-53.174-53.174
						h-64.734C2564.653,2716.059,2540.846,2739.866,2540.846,2769.233L2540.846,2769.233z"/>
				</g>
				<g>
					
						<linearGradient id="SVGID_00000043431401713082283980000011076220885631798435_" gradientUnits="userSpaceOnUse" x1="3545.4158" y1="1858.6327" x2="2843.1218" y2="3542.0742">
						<stop  offset="0" style="stop-color:#4042E2"/>
						<stop  offset="1" style="stop-color:#4F52FF"/>
					</linearGradient>
					<path style="fill:url(#SVGID_00000043431401713082283980000011076220885631798435_);" d="M3012.479,2931.068
						c0,29.368,23.807,53.174,53.174,53.174h64.734c29.368,0,53.174-23.807,53.174-53.174l0,0c0-29.367-23.807-53.174-53.174-53.174
						h-64.734C3036.286,2877.894,3012.479,2901.701,3012.479,2931.068L3012.479,2931.068z"/>
					
						<linearGradient id="SVGID_00000147218528342125815620000018144066202361642402_" gradientUnits="userSpaceOnUse" x1="3780.4478" y1="1234.6202" x2="2375.8584" y2="3816.585">
						<stop  offset="0" style="stop-color:#4042E2"/>
						<stop  offset="1" style="stop-color:#4F52FF"/>
					</linearGradient>
					<path style="fill:url(#SVGID_00000147218528342125815620000018144066202361642402_);" d="M2772.039,2931.068
						c0,29.368,23.807,53.174,53.174,53.174h64.734c29.367,0,53.174-23.807,53.174-53.174l0,0c0-29.367-23.807-53.174-53.174-53.174
						h-64.734C2795.845,2877.894,2772.039,2901.701,2772.039,2931.068L2772.039,2931.068z"/>
					
						<linearGradient id="SVGID_00000070083414967013492230000013077295970035386248_" gradientUnits="userSpaceOnUse" x1="3602.0474" y1="1137.5757" x2="2197.4575" y2="3719.5413">
						<stop  offset="0" style="stop-color:#4042E2"/>
						<stop  offset="1" style="stop-color:#4F52FF"/>
					</linearGradient>
					<path style="fill:url(#SVGID_00000070083414967013492230000013077295970035386248_);" d="M2540.846,2931.068
						c0,29.368,23.807,53.174,53.174,53.174h64.734c29.367,0,53.174-23.807,53.174-53.174l0,0c0-29.367-23.807-53.174-53.174-53.174
						h-64.734C2564.653,2877.894,2540.846,2901.701,2540.846,2931.068L2540.846,2931.068z"/>
				</g>
				
					<linearGradient id="SVGID_00000134247059760146679410000012876495477116481153_" gradientUnits="userSpaceOnUse" x1="3392.979" y1="1023.8404" x2="1988.3899" y2="3605.8047">
					<stop  offset="0" style="stop-color:#4042E2"/>
					<stop  offset="1" style="stop-color:#4F52FF"/>
				</linearGradient>
				<path style="fill:url(#SVGID_00000134247059760146679410000012876495477116481153_);" d="M2323.525,2926.725
					c0,37.172,30.135,67.307,67.307,67.307h4.102c37.172,0,67.307-30.135,67.307-67.307v-128.945
					c0-37.173-30.135-67.307-67.307-67.307h-4.102c-37.172,0-67.307,30.135-67.307,67.307V2926.725z"/>
			</g>
		</g>
	</g>
</g>
</svg>
